<svg width="584" height="590" viewBox="0 0 584 590" fill="none" xmlns="http://www.w3.org/2000/svg">
<g clip-path="url(#favicon)">
<rect width="583.968" height="589.316" fill="white"/>
<path d="M235.444 376.143C216.287 393.038 191.189 403.252 163.658 403.252C157.815 403.252 152.099 402.793 146.538 401.914C94.7034 393.723 55.0634 348.794 55.0635 294.658C55.0635 234.683 103.683 186.063 163.658 186.063C188.852 186.063 211.974 194.61 230.39 208.979C232.117 210.326 233.802 211.725 235.444 213.173C243.024 196.041 252.92 180.164 264.736 165.938L264.262 165.566C236.513 143.915 201.555 131 163.658 131C73.2721 131 7.90177e-06 204.272 0 294.658C0 376.309 59.7672 443.948 137.943 456.303C146.336 457.629 154.926 458.316 163.658 458.316C201.794 458.316 236.918 445.245 264.736 423.378C252.92 409.152 243.024 393.274 235.444 376.143Z" fill="#0B3460"/>
<path d="M113.774 271.765C113.774 259.122 124.024 248.873 136.667 248.873C149.31 248.873 159.559 259.122 159.559 271.766C159.559 284.409 149.31 294.658 136.667 294.658C124.024 294.658 113.774 284.409 113.774 271.765Z" fill="#0B3460"/>
<path d="M181.205 271.765C181.205 259.122 191.454 248.873 204.097 248.873C216.74 248.873 226.989 259.122 226.989 271.766C226.989 284.409 216.74 294.658 204.097 294.658C191.454 294.658 181.205 284.409 181.205 271.765Z" fill="#0B3460"/>
<path fill-rule="evenodd" clip-rule="evenodd" d="M267.736 294.658C267.736 207.333 338.527 136.542 425.852 136.542C513.177 136.542 583.968 207.333 583.968 294.658C583.968 381.983 513.177 452.774 425.852 452.774C338.527 452.774 267.736 381.983 267.736 294.658ZM467.373 271.765C467.373 259.122 477.623 248.873 490.266 248.873C502.909 248.873 513.158 259.122 513.158 271.765C513.158 284.409 502.909 294.658 490.266 294.658C477.623 294.658 467.373 284.409 467.373 271.765ZM422.835 248.873C410.192 248.873 399.943 259.122 399.943 271.765C399.943 284.409 410.192 294.658 422.835 294.658C435.479 294.658 445.728 284.409 445.728 271.765C445.728 259.122 435.479 248.873 422.835 248.873Z" fill="#2B7277"/>
</g>
<defs>
<clipPath id="favicon">
<rect width="583.968" height="589.316" fill="white"/>
</clipPath>
</defs>
</svg>
